<?xml version="1.0" encoding="utf-8"?>
<!-- Generator: Adobe Illustrator 15.0.2, SVG Export Plug-In . SVG Version: 6.00 Build 0)  -->
<!DOCTYPE svg PUBLIC "-//W3C//DTD SVG 1.1//EN" "http://www.w3.org/Graphics/SVG/1.1/DTD/svg11.dtd">
<svg version="1.1" id="Layer_1" xmlns="http://www.w3.org/2000/svg" xmlns:xlink="http://www.w3.org/1999/xlink" x="0px" y="0px"
	 width="140px" height="140px" viewBox="0 0 140 140" enable-background="new 0 0 140 140" xml:space="preserve">
<path fill="#4782A1" d="M130.604,104.984c-19.326,33.475-62.131,44.943-95.606,25.617C1.521,111.273-9.948,68.471,9.379,34.996
	C28.705,1.521,71.51-9.948,104.984,9.378C138.461,28.705,149.928,71.51,130.604,104.984z"/>
<path fill="#EEC75E" d="M69.991,20.998c5.771,0,23.796,30,23.796,53.191s-10.654,30.795-23.796,30.795
	c-13.143,0-23.796-7.604-23.796-30.795C46.194,50.997,65.136,20.998,69.991,20.998z"/>
<path fill="#EB9B58" d="M69.99,48.993c3.396,0,13.998,21.013,13.998,34.153c0,13.144-6.268,21.838-13.998,21.838
	c-7.729,0-13.998-8.694-13.998-21.838C55.992,70.006,67.133,48.993,69.99,48.993z"/>
</svg>
