<?xml version="1.0" encoding="utf-8"?>
<!-- Generator: Adobe Illustrator 15.0.2, SVG Export Plug-In . SVG Version: 6.00 Build 0)  -->
<!DOCTYPE svg PUBLIC "-//W3C//DTD SVG 1.1//EN" "http://www.w3.org/Graphics/SVG/1.1/DTD/svg11.dtd">
<svg version="1.1" id="Layer_1" xmlns="http://www.w3.org/2000/svg" xmlns:xlink="http://www.w3.org/1999/xlink" x="0px" y="0px"
	 width="140px" height="140px" viewBox="0 0 140 140" enable-background="new 0 0 140 140" xml:space="preserve">
<path fill="none" d="M130.604,104.984c-19.326,33.475-62.131,44.943-95.606,25.617C1.521,111.273-9.948,68.471,9.379,34.996
	C28.705,1.521,71.51-9.948,104.984,9.378C138.461,28.705,149.928,71.51,130.604,104.984z"/>
<rect x="65.791" y="102.466" fill="#EEC75E" width="8.4" height="37.394"/>
<path fill="#415560" d="M65.791,100.784h8.4v16.798c0,0-2.117-2.801-4.227-2.801c-2.091,0-4.174,2.801-4.174,2.801V100.784z"/>
<path fill="#2C424E" d="M70.15,78.398c4.641-0.08,8.366,2.009,8.243,9.345c-0.125,7.334-4.055,17.146-8.693,17.224
	c-4.641,0.083-8.238-9.596-8.112-16.935C61.711,80.695,65.51,78.479,70.15,78.398z"/>
<path fill="#283B46" d="M71.218,102.165c-4.641,0.081-8.239-9.597-8.113-16.933c0.027-1.584,0.234-2.92,0.576-4.057
	c-1.187,1.498-1.921,3.702-1.975,6.855c-0.126,7.336,3.47,17.015,8.111,16.934c2.533-0.045,4.848-2.992,6.453-6.851
	C74.833,100.51,73.087,102.135,71.218,102.165z"/>
</svg>
